<svg xmlns="http://www.w3.org/2000/svg" xmlns:xlink="http://www.w3.org/1999/xlink" width="104" height="88" viewBox="0 0 104 88"><defs><clipPath id="a"><rect width="104" height="88" transform="translate(-0.457 -0.32)" fill="#fff"/></clipPath></defs><g transform="translate(0.595 -0.186)"><g transform="translate(-0.138 0.506)" clip-path="url(#a)"><path d="M49.586,73.02a6.913,6.913,0,0,1,6.905-6.905h.177a6.864,6.864,0,0,1,4.884,2.023L66.115,72.7V57.832A25.711,25.711,0,1,1,51.422,11.019a1.837,1.837,0,0,1,1.837,1.837V34.894H75.3a1.837,1.837,0,0,1,1.837,1.837,25.577,25.577,0,0,1-1.345,8.229A6.442,6.442,0,0,1,78.97,50.5v8.882A6.428,6.428,0,0,1,86.315,60.7l.048-.051a6.42,6.42,0,0,1,7.3-1.261V0H9.183V73.461H49.6c-.009-.146-.015-.293-.015-.441M88.153,14.692h-5.51V11.019h5.51ZM78.97,3.673h9.183V7.346H78.97ZM56.932,5.51a1.837,1.837,0,0,1,1.837-1.837A25.74,25.74,0,0,1,84.48,29.384a1.837,1.837,0,0,1-1.837,1.837H58.768a1.837,1.837,0,0,1-1.837-1.837ZM27.548,3.673h3.673V7.346H27.548Zm-7.346,0h3.673V7.346H20.2Zm-7.346,0h3.673V7.346H12.856Zm0,9.183H27.548v3.673H12.856Zm0,7.346H23.875v3.673H12.856Zm0,34.894H25.711v3.673H12.856Zm3.673,11.019H12.856V62.442h3.673Zm14.692,0H20.2V62.442H31.221ZM5.51,0V73.461A5.516,5.516,0,0,1,0,67.951V5.51A5.516,5.516,0,0,1,5.51,0M80.731,27.548H60.605V7.422A22.077,22.077,0,0,1,80.731,27.548M102.845,59.39a6.436,6.436,0,0,0-5.51,0V0a5.516,5.516,0,0,1,5.51,5.51ZM49.586,14.768V36.73a1.837,1.837,0,0,0,1.837,1.837H73.386A21.778,21.778,0,0,1,72.2,44.086,6.429,6.429,0,0,0,66.115,50.5v2.645A22.036,22.036,0,1,1,49.586,14.768M68.649,88.153l-14.3-12.714a3.22,3.22,0,0,1-.737-.96l-.012-.025c-.019-.036-.036-.071-.052-.108a3.232,3.232,0,0,1,2.948-4.558h.177a3.256,3.256,0,0,1,2.287.947l7.7,7.7a1.837,1.837,0,0,0,3.135-1.3V50.5a2.755,2.755,0,1,1,5.51,0V67.951H78.97V65.2a2.755,2.755,0,1,1,5.51,0v2.755h3.673V65.2a2.755,2.755,0,0,1,5.51,0,1.837,1.837,0,1,0,3.673,0,2.755,2.755,0,0,1,5.51,0V88.153Z" transform="translate(0.12 -0.397)" fill="#fff"/></g></g></svg>