<svg xmlns="http://www.w3.org/2000/svg" width="111.7" height="92.27" viewBox="0 0 111.7 92.27"><g transform="translate(0 0)"><path d="M-266.952,732.3c0,5.259.012,9.542,0,13.825a14.015,14.015,0,0,0,3.07,8.8,27.316,27.316,0,0,1,1.863,2.612,2.195,2.195,0,0,1-.581,3.182q-4.465,3.774-8.946,7.529c-1.543,1.294-2.79,1.216-4.355-.05a26.239,26.239,0,0,1-5.5-6.234c-.578-.892-.969-.9-1.747-.179-3.454,3.2-7.142,6.051-11.9,7.048s-9.521,1.3-14.236-.136a16.041,16.041,0,0,1-11.778-12.989c-1.319-6.615-.551-12.913,3.694-18.418,3.351-4.346,7.943-6.809,13.162-8.246a95.09,95.09,0,0,1,16.363-2.524c3.056-.291,3.053-.206,3.068-3.32a20.577,20.577,0,0,0-.3-4.093,6.9,6.9,0,0,0-5.187-5.767c-4.36-1.236-9.108.244-11.52,3.626a10.817,10.817,0,0,0-1.378,3.3,2.582,2.582,0,0,1-3.151,2.137c-3.535-.369-7.07-.749-10.6-1.174-2.294-.276-2.984-1.251-2.469-3.505a20.281,20.281,0,0,1,12.242-14.9,36.86,36.86,0,0,1,28.917-.56c6.693,2.648,10.365,7.743,11.034,14.958C-266.7,722.568-267.109,727.923-266.952,732.3Zm-17.838,8c0-.9-.036-1.8.01-2.693.046-.915-.278-1.309-1.247-1.308a30.7,30.7,0,0,0-9.111,1.308c-6.647,2.062-9.012,7.616-7.579,13.808a7.04,7.04,0,0,0,9.026,5.364,10.744,10.744,0,0,0,6.795-5.655C-285.018,747.744-284.784,744.044-284.79,740.3Z" transform="translate(349.318 -699.58)" fill="#fff"/><path d="M-373.537,992.414c-16.268-.211-31.4-4.339-45.157-13.155a75.3,75.3,0,0,1-9.024-6.792,8.328,8.328,0,0,1-.9-.916,1.068,1.068,0,0,1-.157-1.411,1.016,1.016,0,0,1,1.3-.215c.667.287,1.309.635,1.949.981a111.057,111.057,0,0,0,31.85,11.315,110.483,110.483,0,0,0,22.727,2.135,108.662,108.662,0,0,0,32.708-5.421c2.563-.848,5.109-1.737,7.591-2.808,1.566-.675,2.892-.489,3.382.416.512.946,0,1.929-1.558,2.968-9.7,6.456-20.464,10.09-31.906,11.875A74.468,74.468,0,0,1-373.537,992.414Z" transform="translate(428.98 -900.153)" fill="#fff"/><path d="M-67.977,965.973c-2.273-.156-4.8.447-7.365.59-.586.032-1.328.334-1.593-.377-.3-.791.4-1.215.988-1.59a21.5,21.5,0,0,1,10.254-2.989,22.767,22.767,0,0,1,7.153.5c2.067.51,2.586,1.047,2.52,3.183a22.3,22.3,0,0,1-6.73,15.626,4.006,4.006,0,0,1-.813.617c-.37.215-.787.44-1.19.1s-.266-.779-.124-1.191c.879-2.548,2.028-5,2.717-7.616a15.907,15.907,0,0,0,.727-4.289,2.062,2.062,0,0,0-1.644-2.144A16.088,16.088,0,0,0-67.977,965.973Z" transform="translate(167.714 -894.019)" fill="#fff"/></g></svg>