<svg xmlns="http://www.w3.org/2000/svg" width="816" height="310.141" viewBox="0 0 816 310.141"><g transform="translate(0 0.001)" opacity="0.293" style="isolation:isolate"><path d="M326.158,60.266l.98.567V59.7Z" transform="translate(488.862 89.481)" fill="#4eabd2"/><path d="M299.316,58.494l6.2,3.578-6.2,3.578Z" transform="translate(448.63 87.675)" fill="#4eabd2"/><path d="M282.811,65.371l15.725-9.078V74.449Z" transform="translate(423.891 84.375)" fill="#4eabd2"/><path d="M279.978,70.511l3.431,1.982-3.431,1.982Z" transform="translate(419.646 105.687)" fill="#4eabd2"/><path d="M257.4,54.153l24.988,14.426L257.4,83.007Z" transform="translate(385.797 81.168)" fill="#4eabd2"/><path d="M265.723,73.349l5.9-3.408v6.817Z" transform="translate(398.278 104.831)" fill="#4eabd2"/><path d="M240.63,47.87l2.934,1.694-2.934,1.692Z" transform="translate(360.668 71.751)" fill="#4eabd2"/><path d="M241.037,68.432,265.6,54.251V82.613Z" transform="translate(361.278 81.315)" fill="#4eabd2"/><path d="M224.281,53.224l13.5-7.8V61.021Z" transform="translate(336.163 68.09)" fill="#4eabd2"/><path d="M238.08,66.209l22.052,12.734L238.08,91.674Z" transform="translate(356.846 99.238)" fill="#4eabd2"/><path d="M216.781,52.075l33.982,19.618L216.781,91.312Z" transform="translate(324.923 78.054)" fill="#4eabd2"/><path d="M222,78.942l22.055-12.734V91.676Z" transform="translate(332.744 99.237)" fill="#4eabd2"/><path d="M199.757,45.344l13.866,8.006-13.866,8Z" transform="translate(299.406 67.965)" fill="#4eabd2"/><path d="M199.11,71.693,233.09,52.075V91.312Z" transform="translate(298.437 78.053)" fill="#4eabd2"/><path d="M221.313,82.69l.01,0-.01-.005Z" transform="translate(331.715 123.926)" fill="#4eabd2"/><path d="M184.07,54.257l16.485-9.518V63.775Z" transform="translate(275.894 67.058)" fill="#4eabd2"/><path d="M197.87,64.831l28.015,16.175L197.87,97.179Z" transform="translate(296.577 97.174)" fill="#4eabd2"/><path d="M177.367,52.075l33.979,19.618L177.367,91.312Z" transform="translate(265.846 78.054)" fill="#4eabd2"/><path d="M179.4,83.072l33.979-19.618V102.69Z" transform="translate(268.899 95.108)" fill="#4eabd2"/><path d="M161.244,46.906l7.1,4.1-7.1,4.1Z" transform="translate(241.681 70.306)" fill="#4eabd2"/><path d="M159.7,71.693l33.979-19.618V91.312Z" transform="translate(239.36 78.053)" fill="#4eabd2"/><path d="M180.952,81.041l7.1,4.1-7.1,4.1Z" transform="translate(271.219 121.468)" fill="#4eabd2"/><path d="M200.659,115.174l7.1,4.1-7.1,4.1Z" transform="translate(300.758 172.63)" fill="#4eabd2"/><path d="M122.285,2.183l3.688,2.132-3.688,2.129Z" transform="translate(183.287 3.273)" fill="#4eabd2"/><path d="M128.928,14.958l1.569.907V14.051Z" transform="translate(193.243 21.061)" fill="#4eabd2"/><path d="M146.823,51.444l8.361-4.828v9.656Z" transform="translate(220.065 69.871)" fill="#4eabd2"/><path d="M157.659,63.454l33.979,19.618-33.979,19.616Z" transform="translate(236.307 95.108)" fill="#4eabd2"/><path d="M166.27,85.915l9.336-5.39v10.78Z" transform="translate(249.214 120.696)" fill="#4eabd2"/><path d="M187.415,118.183l3.951-2.279v4.56Z" transform="translate(280.906 173.723)" fill="#4eabd2"/><path d="M137.952,52.075l33.982,19.618L137.952,91.312Z" transform="translate(206.769 78.054)" fill="#4eabd2"/><path d="M139.988,83.072l33.979-19.618V102.69Z" transform="translate(209.821 95.108)" fill="#4eabd2"/><path d="M120.578,44.739l16.485,9.518-16.485,9.518Z" transform="translate(180.729 67.058)" fill="#4eabd2"/><path d="M120.281,71.693,154.26,52.075V91.312Z" transform="translate(180.283 78.053)" fill="#4eabd2"/><path d="M139.921,78.242l19.216,11.095-19.216,11.1Z" transform="translate(209.72 117.273)" fill="#4eabd2"/><path d="M161.077,114.884l8.361,4.828-8.361,4.828Z" transform="translate(241.43 172.195)" fill="#4eabd2"/><path d="M106.789,52.247l10.683-6.167V58.414Z" transform="translate(160.061 69.068)" fill="#4eabd2"/><path d="M118.245,63.454l33.979,19.618-33.979,19.616Z" transform="translate(177.231 95.108)" fill="#4eabd2"/><path d="M124.219,89.337l19.216-11.095v22.19Z" transform="translate(186.186 117.274)" fill="#4eabd2"/><path d="M143.927,123.469l19.216-11.092v22.187Z" transform="translate(215.725 168.437)" fill="#4eabd2"/><path d="M89.843,37.284l.327.19v-.38Z" transform="translate(134.662 55.6)" fill="#4eabd2"/><path d="M98.537,52.075l33.979,19.618L98.537,91.312Z" transform="translate(147.692 78.054)" fill="#4eabd2"/><path d="M100.574,83.072l33.979-19.618V102.69Z" transform="translate(150.745 95.108)" fill="#4eabd2"/><path d="M81.561,45.428l13.5,7.8-13.5,7.794Z" transform="translate(122.248 68.091)" fill="#4eabd2"/><path d="M80.866,71.693l33.979-19.618V91.312Z" transform="translate(121.206 78.053)" fill="#4eabd2"/><path d="M99.507,76.511l26.708,15.42-26.708,15.42Z" transform="translate(149.147 114.68)" fill="#4eabd2"/><path d="M120.476,112.83l17.255,9.96-17.255,9.965Z" transform="translate(180.575 169.116)" fill="#4eabd2"/><path d="M43.922,3.22l.195-.115-.195-.115Z" transform="translate(65.832 4.482)" fill="#4eabd2"/><path d="M63.548,37.911l.8-.46-.8-.467Z" transform="translate(95.249 55.434)" fill="#4eabd2"/><path d="M67.465,52.129l10.34-5.97V58.1Z" transform="translate(101.121 69.186)" fill="#4eabd2"/><path d="M78.83,63.454l33.979,19.618L78.83,102.688Z" transform="translate(118.154 95.108)" fill="#4eabd2"/><path d="M81.747,93.306l30.678-17.712v35.424Z" transform="translate(122.526 113.305)" fill="#4eabd2"/><path d="M106.229,121.241l12.782-7.377V128.62Z" transform="translate(159.221 170.666)" fill="#4eabd2"/><path d="M29.464,4.782l5.043-2.911V7.693Z" transform="translate(44.162 2.805)" fill="#4eabd2"/><path d="M43.312,24.691l4.763,2.751-4.763,2.749Z" transform="translate(64.919 37.01)" fill="#4eabd2"/><path d="M48.783,39.42l6.5-3.751v7.5Z" transform="translate(73.119 53.463)" fill="#4eabd2"/><path d="M59.122,52.075,93.1,71.694,59.122,91.312Z" transform="translate(88.615 78.054)" fill="#4eabd2"/><path d="M61.159,83.072,95.138,63.453V102.69Z" transform="translate(91.668 95.108)" fill="#4eabd2"/><path d="M82.2,92.054l8.684,5.013L82.2,102.082Z" transform="translate(123.212 137.976)" fill="#4eabd2"/><path d="M89.513,105.982l1.569.91v-1.817Z" transform="translate(134.167 157.493)" fill="#4eabd2"/><path d="M29.684,27.253,33.9,24.817v4.87Z" transform="translate(44.492 37.198)" fill="#4eabd2"/><path d="M41.542,44.381,59.576,54.794,41.542,65.2Z" transform="translate(62.265 66.522)" fill="#4eabd2"/><path d="M41.451,71.693,75.431,52.075V91.312Z" transform="translate(62.129 78.053)" fill="#4eabd2"/><path d="M59.122,74.832,93.1,94.45,59.122,114.066Z" transform="translate(88.615 112.162)" fill="#4eabd2"/><path d="M66.525,98.861l13.866-8v16.01Z" transform="translate(99.711 136.182)" fill="#4eabd2"/><path d="M81.265,113.183l15.725,9.078-15.725,9.081Z" transform="translate(121.804 169.645)" fill="#4eabd2"/><path d="M2.78,0V15.172L15.922,7.588Z" transform="translate(4.167 0)" fill="#4eabd2"/><path d="M10.118,15.691l3.688-2.129v4.261Z" transform="translate(15.165 20.328)" fill="#4eabd2"/><path d="M23.082,35.164l8.683,5.013-8.683,5.015Z" transform="translate(34.597 52.706)" fill="#4eabd2"/><path d="M25.683,55.2,44.9,44.108V66.3Z" transform="translate(38.494 66.112)" fill="#4eabd2"/><path d="M39.415,63.454,73.394,83.072,39.415,102.688Z" transform="translate(59.077 95.108)" fill="#4eabd2"/><path d="M41.451,94.45,75.431,74.831v39.237Z" transform="translate(62.129 112.162)" fill="#4eabd2"/><path d="M62.666,103.725l7.414,4.281-7.414,4.281Z" transform="translate(93.927 155.469)" fill="#4eabd2"/><path d="M68.879,118.561l5.043-2.909v5.82Z" transform="translate(103.239 173.346)" fill="#4eabd2"/><path d="M9.041,39.845l7.726-4.46v8.921Z" transform="translate(13.551 53.038)" fill="#4eabd2"/><path d="M19.708,52.075,53.687,71.694,19.708,91.312Z" transform="translate(29.539 78.054)" fill="#4eabd2"/><path d="M21.744,83.072,55.726,63.453V102.69Z" transform="translate(32.591 95.108)" fill="#4eabd2"/><path d="M39.795,86.868l31.131,17.972L39.795,122.814Z" transform="translate(59.647 130.203)" fill="#4eabd2"/><path d="M45.914,111.412l17.255-9.96v19.923Z" transform="translate(68.818 152.062)" fill="#4eabd2"/><path d="M.56,76.058,30.346,58.864.56,41.667Z" transform="translate(0.839 62.453)" fill="#4eabd2"/><path d="M2.037,71.693,36.016,52.075V91.312Z" transform="translate(3.053 78.053)" fill="#4eabd2"/><path d="M19.708,74.832,53.687,94.45,19.708,114.066Z" transform="translate(29.539 112.162)" fill="#4eabd2"/><path d="M22.263,105.153,54.3,86.659v36.988Z" transform="translate(33.369 129.89)" fill="#4eabd2"/><path d="M43.081,115.315l6.5,3.751-6.5,3.753Z" transform="translate(64.572 172.841)" fill="#4eabd2"/><path d="M0,102.688,33.979,83.072,0,63.453Z" transform="translate(0 95.108)" fill="#4eabd2"/><path d="M2.037,94.45,36.016,74.831v39.237Z" transform="translate(3.053 112.162)" fill="#4eabd2"/><path d="M20.85,99.566l25.413,14.673L20.85,128.912Z" transform="translate(31.251 149.235)" fill="#4eabd2"/><path d="M25.576,123.609l19.616-11.325v22.65Z" transform="translate(38.335 168.298)" fill="#4eabd2"/><path d="M1.425,88.677l23.3,13.451-23.3,13.454Z" transform="translate(2.136 132.915)" fill="#4eabd2"/><path d="M5.328,112.932l21.643-12.494v24.991Z" transform="translate(7.986 150.542)" fill="#4eabd2"/><path d="M.32,145.986,31.9,127.752.32,109.52Z" transform="translate(0.48 164.155)" fill="#4eabd2"/></g></svg>