<svg xmlns="http://www.w3.org/2000/svg" xmlns:xlink="http://www.w3.org/1999/xlink" width="88" height="88" viewBox="0 0 88 88"><defs><clipPath id="a"><rect width="88" height="88" transform="translate(0 -0.149)" fill="#fff"/></clipPath></defs><g transform="translate(0 0.503)"><path d="M209.382,282.264h34.142l7.6-10.264H201.781Z" transform="translate(-167.262 -225.561)" fill="#fff"/><g transform="translate(0 -0.354)"><g clip-path="url(#a)"><path d="M226.532,303.765H190.264a2.564,2.564,0,0,1-1.814-.752L180,291.746v35.113a2.565,2.565,0,0,0,2.566,2.566H234.23a2.565,2.565,0,0,0,2.566-2.566V291.746l-8.45,11.267a2.564,2.564,0,0,1-1.814.752m5.132,12.83a7.7,7.7,0,1,1-7.7-7.7,7.707,7.707,0,0,1,7.7,7.7" transform="translate(-149.207 -241.575)" fill="#fff"/><path d="M422,424.566A2.566,2.566,0,1,0,424.566,422,2.568,2.568,0,0,0,422,424.566" transform="translate(-349.807 -349.546)" fill="#fff"/><path d="M92.566,97.132A2.566,2.566,0,1,0,90,94.566a2.568,2.568,0,0,0,2.566,2.566" transform="translate(-74.603 -76)" fill="#fff"/><path d="M22.682,422H8.789l13.893,13.893Z" transform="translate(-7.285 -349.546)" fill="#fff"/><path d="M20.529,69.627V87.589h5.132V49.1a7.707,7.707,0,0,1,7.7-7.7H61.586V2.566A2.565,2.565,0,0,0,59.02,0H2.566A2.565,2.565,0,0,0,0,2.566V67.061H17.963a2.565,2.565,0,0,1,2.566,2.566m12.83-59.02h15.4a2.566,2.566,0,0,1,0,5.132h-15.4a2.566,2.566,0,0,1,0-5.132m0,10.264h15.4a2.566,2.566,0,0,1,0,5.132h-15.4a2.566,2.566,0,0,1,0-5.132m-15.4-10.264a7.7,7.7,0,1,1-7.7,7.7,7.707,7.707,0,0,1,7.7-7.7M12.83,31.135H48.756a2.566,2.566,0,0,1,0,5.132H12.83a2.566,2.566,0,0,1,0-5.132m0,10.264h5.132a2.566,2.566,0,1,1,0,5.132H12.83a2.566,2.566,0,1,1,0-5.132M10.264,54.23a2.565,2.565,0,0,1,2.566-2.566h5.132a2.566,2.566,0,0,1,0,5.132H12.83a2.565,2.565,0,0,1-2.566-2.566" transform="translate(0 0.261)" fill="#fff"/></g></g></g></svg>