<svg xmlns="http://www.w3.org/2000/svg" xmlns:xlink="http://www.w3.org/1999/xlink" width="100" height="100" viewBox="0 0 100 100"><defs><clipPath id="a"><rect width="100" height="100" transform="translate(-0.083 -0.083)" fill="#fff"/></clipPath></defs><g transform="translate(0.516 0.516)"><g transform="translate(-0.433 -0.433)" clip-path="url(#a)"><path d="M0,45v78.63H32.07c6.1,0,10.972,1.222,14.49,3.628v-.73a8.7,8.7,0,0,0-8.694-8.694H5.8V45Z" transform="translate(0.459 -35.847)" fill="#fff"/><path d="M279.694,422A8.7,8.7,0,0,0,271,430.694a14.461,14.461,0,0,1,8.694-2.9H317.56V422Z" transform="translate(-218.185 -340.013)" fill="#fff"/><path d="M32.07,482H0v5.8H45.991c-1.591-3.72-6.47-5.8-13.921-5.8" transform="translate(0.459 -388.421)" fill="#fff"/><path d="M279.694,45A8.7,8.7,0,0,0,271,53.694v61.249a14.42,14.42,0,0,1,8.694-2.9H317.56V45Zm-2.9,5.8h34.968v55.447H276.8Z" transform="translate(-218.185 -35.847)" fill="#fff"/><path d="M273.578,487.8H319.64V482H281.774a8.708,8.708,0,0,0-8.2,5.8" transform="translate(-220.265 -388.421)" fill="#fff"/><rect width="23" height="44" transform="translate(64.917 20.917)" fill="#fff"/><rect width="12" height="18" transform="translate(22.917 46.917)" fill="#fff"/><path d="M60,75.732H86.274a14.42,14.42,0,0,1,8.694,2.9V8.694A8.7,8.7,0,0,0,86.274,0H60Zm29.172-5.8H65.8V40.764H89.172Zm0-34.968H65.8V5.8H89.172Z" transform="translate(-47.949 0.459)" fill="#fff"/><rect width="12" height="18" transform="translate(22.917 11.917)" fill="#fff"/></g></g></svg>