<svg xmlns="http://www.w3.org/2000/svg" width="31.237" height="31.237" viewBox="0 0 31.237 31.237"><path d="M15.619,0c-4.243,0-4.772.019-6.439.094A11.528,11.528,0,0,0,5.388.82a7.643,7.643,0,0,0-2.767,1.8A7.636,7.636,0,0,0,.82,5.388,11.505,11.505,0,0,0,.094,9.179C.016,10.846,0,11.376,0,15.619s.019,4.772.094,6.439A11.532,11.532,0,0,0,.82,25.849a7.65,7.65,0,0,0,1.8,2.767,7.636,7.636,0,0,0,2.767,1.8,11.542,11.542,0,0,0,3.791.726c1.667.078,2.2.094,6.439.094s4.772-.019,6.439-.094a11.555,11.555,0,0,0,3.791-.726,7.982,7.982,0,0,0,4.568-4.568,11.532,11.532,0,0,0,.726-3.791c.078-1.666.094-2.2.094-6.439s-.019-4.772-.094-6.439a11.545,11.545,0,0,0-.726-3.791,7.666,7.666,0,0,0-1.8-2.767A7.621,7.621,0,0,0,25.849.82,11.487,11.487,0,0,0,22.058.094C20.391.016,19.862,0,15.619,0Zm0,2.811c4.168,0,4.666.021,6.313.092a8.611,8.611,0,0,1,2.9.54,5.141,5.141,0,0,1,2.965,2.963,8.612,8.612,0,0,1,.537,2.9c.075,1.648.091,2.142.091,6.313s-.019,4.666-.1,6.313a8.784,8.784,0,0,1-.548,2.9,4.949,4.949,0,0,1-1.171,1.8,4.88,4.88,0,0,1-1.8,1.166,8.677,8.677,0,0,1-2.909.537c-1.658.075-2.147.091-6.324.091s-4.667-.019-6.324-.1a8.862,8.862,0,0,1-2.91-.548,4.836,4.836,0,0,1-1.8-1.171,4.744,4.744,0,0,1-1.171-1.8A8.885,8.885,0,0,1,2.831,21.9c-.059-1.64-.079-2.147-.079-6.3s.021-4.667.079-6.326a8.854,8.854,0,0,1,.547-2.908,4.62,4.62,0,0,1,1.171-1.8A4.625,4.625,0,0,1,6.345,3.4a8.646,8.646,0,0,1,2.891-.548c1.659-.059,2.148-.078,6.324-.078l.059.039Zm0,4.787a8.02,8.02,0,1,0,8.02,8.02A8.02,8.02,0,0,0,15.619,7.6Zm0,13.226a5.206,5.206,0,1,1,5.206-5.206A5.2,5.2,0,0,1,15.619,20.825ZM25.831,7.283a1.874,1.874,0,1,1-1.874-1.873A1.875,1.875,0,0,1,25.831,7.283Z"/></svg>