<svg xmlns="http://www.w3.org/2000/svg" xmlns:xlink="http://www.w3.org/1999/xlink" width="32.98" height="32.979" viewBox="0 0 32.98 32.979"><defs><clipPath id="a"><rect width="32.98" height="32.98" fill="none"/></clipPath></defs><g clip-path="url(#a)"><path d="M180.666,183.309c-.007-.128-.02-.256-.02-.384q0-10.57,0-21.141c0-.075.005-.15,0-.225-.015-.212.092-.291.291-.278.043,0,.086,0,.129,0h5.76c.425,0,.426,0,.427.431,0,.719,0,1.437,0,2.156a.466.466,0,0,0,.062.343,9.679,9.679,0,0,1,.682-.972,7.288,7.288,0,0,1,4.68-2.453,10.246,10.246,0,0,1,4.2.328,6.14,6.14,0,0,1,4.27,3.984,14.074,14.074,0,0,1,.771,3.962,1.2,1.2,0,0,0,.047.413q0,6.79.006,13.58c0,.22-.043.265-.264.264-2.188-.01-4.376-.006-6.565-.006-.008-.16-.023-.32-.024-.48-.024-3.913.054-7.826-.059-11.738a7.728,7.728,0,0,0-.266-1.872,2.9,2.9,0,0,0-1.756-2.156,4.371,4.371,0,0,0-3.467.168,3.447,3.447,0,0,0-1.806,2.56,12.928,12.928,0,0,0-.23,3.065c.027,3.484.013,6.969.014,10.453Z" transform="translate(-168.995 -150.336)"/><path d="M8.124,191.678c0-.139-.013-.278-.013-.418q0-10.535,0-21.069c0-.542,0-.543.547-.543,1.994,0,3.989,0,5.983-.005.293,0,.39.092.39.387q-.009,10.712-.006,21.423c0,.075-.009.15-.014.224Z" transform="translate(-7.587 -158.704)"/><path d="M0,3.971A3.946,3.946,0,0,1,3.991,0,3.95,3.95,0,0,1,7.959,4,4.025,4.025,0,0,1,3.982,8.015,4.022,4.022,0,0,1,0,3.971" transform="translate(0 -0.001)"/></g></svg>