<?xml version="1.0" encoding="utf-8"?>
<!-- Generator: Adobe Illustrator 25.0.0, SVG Export Plug-In . SVG Version: 6.00 Build 0)  -->
<svg version="1.1" id="Layer_1" xmlns="http://www.w3.org/2000/svg" xmlns:xlink="http://www.w3.org/1999/xlink" x="0px" y="0px"
	 viewBox="0 0 332 105.5" style="enable-background:new 0 0 332 105.5;" xml:space="preserve">
<style type="text/css">
	.st0{fill:#161615;}
	.st1{fill:#312782;}
	.st2{fill:#47A8D1;}
	.st3{fill:#FFFFFF;}
	.st4{fill:#111E72;}
</style>
<g transform="translate(-258.086 -257.255) scale(0.921 1)">
	<g transform="translate(396.442 287.331)">
		<path class="st0" d="M32.9,43.9h-9.6l-15-19.7v19.7H0V1.8h8.3v18.6L22.8,1.8h9.6L16.7,22.3L32.9,43.9z"/>
		<path class="st0" d="M56.8,13.8h7.8v30.1h-7.8v-3.6c-2.3,2.9-5.6,4.4-9.8,4.4c-3.9,0-7.7-1.6-10.3-4.6c-5.7-6.4-5.7-16.1,0-22.6
			c2.6-3,6.4-4.6,10.3-4.6c4.2,0,7.5,1.5,9.8,4.4V13.8z M42.5,35c1.6,1.6,3.7,2.4,6,2.4c2.2,0.1,4.4-0.8,6-2.4
			c3.2-3.5,3.2-8.8,0-12.2c-1.6-1.6-3.8-2.4-6-2.4c-2.2-0.1-4.4,0.8-6,2.4C39.4,26.3,39.4,31.5,42.5,35z"/>
		<path class="st0" d="M79.4,19c0.6-1.8,1.9-3.4,3.6-4.3c1.7-1,3.6-1.5,5.6-1.4v8.7c-2.2-0.3-4.5,0.2-6.4,1.4
			c-1.9,1.2-2.8,3.3-2.8,6.2v14.4h-7.8V13.8h7.8L79.4,19z"/>
		<path class="st0" d="M111.1,21.3h-6.8v12.5c-0.1,0.8,0.2,1.7,0.8,2.3c0.6,0.5,1.5,0.8,2.3,0.8c1.2,0.1,2.5,0,3.7,0v7
			c-5.3,0.6-9.1,0.1-11.3-1.5s-3.3-4.5-3.3-8.6V21.3h-5.2v-7.5h5.2V7.8l7.8-2.3v8.4h6.8L111.1,21.3z"/>
		<path class="st0" d="M134.1,13c4,0,7.7,1.6,10.4,4.6c5.7,6.4,5.7,16.1,0,22.6c-2.6,3-6.4,4.6-10.4,4.6c-4.2,0-7.5-1.5-9.8-4.4v3.6
			h-7.8V1.8h7.8v15.6C126.6,14.5,129.9,13,134.1,13z M126.7,35c1.6,1.6,3.7,2.4,6,2.4c2.2,0.1,4.4-0.8,6-2.4c3.2-3.5,3.2-8.8,0-12.2
			c-1.6-1.6-3.8-2.4-6-2.4c-2.2-0.1-4.4,0.8-6,2.4C123.6,26.3,123.6,31.5,126.7,35z"/>
		<path class="st0" d="M154.3,43.9V0h7.8v43.9H154.3z"/>
		<path class="st0" d="M189,13.8h7.8v30.1H189v-3.4c-1.9,2.8-4.9,4.2-9,4.2c-3.1,0.1-6-1.1-8.2-3.3c-2.1-2.2-3.2-5.3-3.2-9.1V13.8
			h7.8v17.5c-0.1,1.7,0.5,3.4,1.6,4.6c1.2,1.1,2.7,1.7,4.3,1.6c1.8,0.1,3.5-0.6,4.8-1.9c1.2-1.2,1.8-3.1,1.8-5.6L189,13.8z"/>
		<path class="st0" d="M210.4,32.1c1,3.8,3.9,5.7,8.5,5.7c2.6,0.2,5.1-1,6.7-3l6.3,3.6c-3,4.3-7.3,6.4-13.1,6.4c-5,0-9-1.5-12-4.5
			c-6.3-6.1-6.4-16.2-0.3-22.5c3.1-3.2,7.3-4.9,11.7-4.8c4.1-0.1,8.1,1.5,10.9,4.6c2.9,3.1,4.4,7.1,4.3,11.3c0,1.1-0.1,2.1-0.3,3.2
			L210.4,32.1z M210.3,26.1h15.4c-0.3-1.8-1.3-3.5-2.7-4.6c-1.4-1-3-1.5-4.7-1.5c-1.9-0.1-3.7,0.5-5.2,1.6
			C211.6,22.7,210.7,24.3,210.3,26.1L210.3,26.1z"/>
	</g>
	<g transform="translate(292.58 260.816)">
		<path class="st1" d="M30.3,31.2v36l12.3,7.3V23.9L30.3,31.2z M22.1,62.3V36.1L0,49.2L22.1,62.3z M71.3,49.3c1.6,0.9,3,2.3,4,3.9
			c0.9,1.7,1.4,3.7,1.4,5.6c0.1,3.4-1.3,6.6-3.8,8.8c-2.6,2.3-5.9,3.5-9.4,3.4h-9.6v10.1l28.9,17.2V55.2L71.3,49.3z M53.9,17.2v10.1
			h9.6c3.4-0.1,6.8,1.1,9.4,3.4c2.5,2.2,3.9,5.5,3.8,8.8c0.2,4-2,7.8-5.5,9.7c0,0,0,0,0.1,0l11.6-7.6V0L53.9,17.2z M71.2,49.2
			L71.2,49.2L71.2,49.2C71.2,49.3,71.2,49.2,71.2,49.2L71.2,49.2z"/>
		<path class="st2" d="M67,54.8c0.9,0.9,1.4,2.2,1.4,3.5c0,1.3-0.5,2.6-1.4,3.6c-0.9,0.9-2.2,1.4-3.5,1.4h-9.6L42.6,49.3v0
			l11.3-14.1h9.6c1.3,0,2.6,0.5,3.5,1.4c1.9,2,1.9,5.1,0,7.1c-0.9,0.9-2.2,1.4-3.5,1.4h-9.6v8.3h9.6C64.8,53.3,66.1,53.8,67,54.8z"
			/>
		<g transform="translate(71.154 49.234)">
			<path class="st3" d="M0.1,0L0.1,0L0.1,0C0,0,0.1,0,0.1,0z"/>
		</g>
		<path class="st3" d="M71.2,49.3L71.2,49.3L71.2,49.3C71.2,49.2,71.2,49.3,71.2,49.3z"/>
		<path class="st4" d="M42.6,49.2L42.6,49.2L42.6,49.2L42.6,49.2z"/>
	</g>
</g>
</svg>
