<?xml version="1.0" encoding="utf-8"?>
<!-- Generator: Adobe Illustrator 25.0.0, SVG Export Plug-In . SVG Version: 6.00 Build 0)  -->
<svg version="1.1" id="Layer_1" xmlns="http://www.w3.org/2000/svg" xmlns:xlink="http://www.w3.org/1999/xlink" x="0px" y="0px"
	 viewBox="0 0 1019.2 853.3" style="enable-background:new 0 0 1019.2 853.3;" xml:space="preserve">
<style type="text/css">
	.st0{opacity:0.6;fill:#EBEBEB;enable-background:new    ;}
	.st1{fill:#47A8D1;}
	.st2{fill:#EBEBEB;}
	.st3{fill:#FFFFFF;}
</style>
<g id="Group_13" transform="translate(-51.683 -17.948)">
	<path id="Path_22" class="st0" d="M296.2,298.8v-2.5h-10.9l4.4,2.5H296.2z"/>
	<path id="Path_23" class="st1" d="M1015.1,152.5L840.4,51.7v201.7L1015.1,152.5z"/>
	<path id="Path_25" class="st2" d="M61.1,586.2l174.7,100.9V485.4L61.1,586.2z"/>
	<g id="Group_7" transform="translate(740.734 89.556)">
		<path id="Path_28" class="st1" d="M46.9,64.6c0.5,0,0.9,0.4,0.9,0.9c0,0.5-0.4,0.9-0.9,0.9c-0.5,0-0.9-0.4-0.9-0.9
			C46,65,46.4,64.6,46.9,64.6L46.9,64.6z"/>
		<path id="Path_29" class="st1" d="M82.3,71.2c0.5,0,0.9,0.4,0.9,0.9c0,0.5-0.4,0.9-0.9,0.9c-0.5,0-0.9-0.4-0.9-0.9c0,0,0,0,0,0
			C81.5,71.6,81.8,71.2,82.3,71.2z"/>
		<path id="Path_30" class="st1" d="M32.7,62c0.5,0,0.9,0.4,0.9,0.9s-0.4,0.9-0.9,0.9c-0.5,0-0.9-0.4-0.9-0.9
			C31.8,62.4,32.2,62,32.7,62L32.7,62z"/>
		<circle id="Ellipse_4" class="st1" cx="25.8" cy="15.1" r="0.9"/>
		<path id="Path_31" class="st1" d="M50.9,56.5c0.5,0,0.9,0.4,0.9,0.9c0,0.5-0.4,0.9-0.9,0.9c-0.5,0-0.9-0.4-0.9-0.9c0,0,0,0,0,0
			C50,56.9,50.4,56.5,50.9,56.5C50.9,56.5,50.9,56.5,50.9,56.5z"/>
		<circle id="Ellipse_5" class="st1" cx="68" cy="46" r="0.9"/>
		<path id="Path_32" class="st1" d="M7,75.6c0.5,0,0.9,0.4,0.9,0.9S7.5,77.3,7,77.3c-0.5,0-0.9-0.4-0.9-0.9C6.1,76,6.5,75.6,7,75.6
			L7,75.6z"/>
		<circle id="Ellipse_6" class="st1" cx="40.1" cy="72.3" r="0.9"/>
		<path id="Path_33" class="st1" d="M61.9,57.3c0.5,0,0.9,0.4,0.9,0.9c0,0.5-0.4,0.9-0.9,0.9c-0.5,0-0.9-0.4-0.9-0.9
			C61,57.6,61.4,57.3,61.9,57.3z"/>
		<path id="Path_34" class="st1" d="M15.7,80.8c0.5,0,0.9,0.4,0.9,0.9s-0.4,0.9-0.9,0.9c-0.5,0-0.9-0.4-0.9-0.9
			C14.8,81.2,15.2,80.8,15.7,80.8C15.7,80.8,15.7,80.8,15.7,80.8z"/>
		<path id="Path_35" class="st1" d="M77.7,68.3c0.5,0,0.9,0.4,0.9,0.9c0,0.5-0.4,0.9-0.9,0.9c-0.5,0-0.9-0.4-0.9-0.9
			C76.9,68.7,77.3,68.3,77.7,68.3C77.7,68.3,77.7,68.3,77.7,68.3z"/>
		<circle id="Ellipse_7" class="st1" cx="39" cy="81.8" r="0.9"/>
		<path id="Path_36" class="st1" d="M10.5,94.2c0.5,0,0.9,0.4,0.9,0.9s-0.4,0.9-0.9,0.9c-0.5,0-0.9-0.4-0.9-0.9
			C9.6,94.5,10,94.2,10.5,94.2L10.5,94.2z"/>
		<path id="Path_37" class="st1" d="M57.2,90c0.5,0,0.9,0.4,0.9,0.9c0,0.5-0.4,0.9-0.9,0.9c-0.5,0-0.9-0.4-0.9-0.9
			C56.4,90.4,56.8,90,57.2,90L57.2,90z"/>
		<path id="Path_38" class="st1" d="M51,38.5c0.5,0,0.9,0.4,0.9,0.9c0,0.5-0.4,0.9-0.9,0.9c-0.5,0-0.9-0.4-0.9-0.9
			C50.1,38.9,50.5,38.5,51,38.5L51,38.5z"/>
		<path id="Path_39" class="st1" d="M75.8,43.3c0.5,0,0.9,0.4,0.9,0.9c0,0.5-0.4,0.9-0.9,0.9c-0.5,0-0.9-0.4-0.9-0.9
			C75,43.7,75.4,43.3,75.8,43.3L75.8,43.3z"/>
		<path id="Path_40" class="st1" d="M102.3,64.2c0.5,0,0.9,0.4,0.9,0.9c0,0.5-0.4,0.9-0.9,0.9c-0.5,0-0.9-0.4-0.9-0.9
			C101.4,64.6,101.8,64.2,102.3,64.2L102.3,64.2z"/>
		<path id="Path_41" class="st1" d="M27.5,108c0.5,0,0.9,0.4,0.9,0.9s-0.4,0.9-0.9,0.9c-0.5,0-0.9-0.4-0.9-0.9
			C26.6,108.4,27,108,27.5,108C27.5,108,27.5,108,27.5,108z"/>
		<circle id="Ellipse_8" class="st1" cx="52.1" cy="75.3" r="0.9"/>
		<path id="Path_42" class="st1" d="M22.4,43.9c0.5,0,0.9,0.4,0.9,0.9s-0.4,0.9-0.9,0.9c-0.5,0-0.9-0.4-0.9-0.9c0,0,0,0,0,0
			C21.6,44.2,22,43.9,22.4,43.9z"/>
		<path id="Path_43" class="st1" d="M1.8,111.2c0.5,0,0.9,0.4,0.9,0.9S2.3,113,1.8,113c-0.5,0-0.9-0.4-0.9-0.9
			C1,111.6,1.3,111.2,1.8,111.2L1.8,111.2z"/>
		<path id="Path_44" class="st1" d="M29.5,76.8c0.5,0,0.9,0.4,0.9,0.9s-0.4,0.9-0.9,0.9c-0.5,0-0.9-0.4-0.9-0.9c0,0,0,0,0,0
			C28.6,77.2,29,76.8,29.5,76.8C29.5,76.8,29.5,76.8,29.5,76.8z"/>
		<path id="Path_45" class="st1" d="M14.2,58.5c0.5,0,0.9,0.4,0.9,0.9s-0.4,0.9-0.9,0.9c-0.5,0-0.9-0.4-0.9-0.9
			C13.3,58.9,13.7,58.5,14.2,58.5L14.2,58.5z"/>
		<path id="Path_46" class="st1" d="M5.6,120.5c0.5,0,0.9,0.4,0.9,0.9s-0.4,0.9-0.9,0.9c-0.5,0-0.9-0.4-0.9-0.9S5.1,120.5,5.6,120.5
			L5.6,120.5z"/>
		<path id="Path_47" class="st1" d="M71,52.5c0.5,0,0.9,0.4,0.9,0.9c0,0.5-0.4,0.9-0.9,0.9c-0.5,0-0.9-0.4-0.9-0.9
			C70.1,52.9,70.5,52.5,71,52.5L71,52.5z"/>
		<path id="Path_48" class="st1" d="M96,62.3c0.5,0,0.9,0.4,0.9,0.9c0,0.5-0.4,0.9-0.9,0.9c-0.5,0-0.9-0.4-0.9-0.9
			C95.1,62.7,95.5,62.3,96,62.3L96,62.3z"/>
		<path id="Path_49" class="st1" d="M58.2,40.1c0.5,0,0.9,0.4,0.9,0.9c0,0.5-0.4,0.9-0.9,0.9c-0.5,0-0.9-0.4-0.9-0.9c0,0,0,0,0,0
			C57.3,40.4,57.7,40.1,58.2,40.1z"/>
		<path id="Path_50" class="st1" d="M11.1,85.7c0.5,0,0.9,0.4,0.9,0.9s-0.4,0.9-0.9,0.9c-0.5,0-0.9-0.4-0.9-0.9
			C10.3,86.1,10.7,85.7,11.1,85.7L11.1,85.7z"/>
		<path id="Path_51" class="st1" d="M86.2,48.7c0.5,0,0.9,0.4,0.9,0.9c0,0.5-0.4,0.9-0.9,0.9c-0.5,0-0.9-0.4-0.9-0.9c0,0,0,0,0,0
			C85.3,49.1,85.7,48.7,86.2,48.7C86.2,48.7,86.2,48.7,86.2,48.7z"/>
		<path id="Path_52" class="st1" d="M76.2,55.7c0.5,0,0.9,0.4,0.9,0.9c0,0.5-0.4,0.9-0.9,0.9c-0.5,0-0.9-0.4-0.9-0.9
			C75.3,56.1,75.7,55.7,76.2,55.7L76.2,55.7z"/>
		<path id="Path_53" class="st1" d="M21.6,61c0.5,0,0.9,0.4,0.9,0.9s-0.4,0.9-0.9,0.9c-0.5,0-0.9-0.4-0.9-0.9
			C20.8,61.4,21.1,61,21.6,61L21.6,61z"/>
		<circle id="Ellipse_9" class="st1" cx="8.2" cy="81.6" r="0.9"/>
		<path id="Path_54" class="st1" d="M10.8,110.7c0.5,0,0.9,0.4,0.9,0.9s-0.4,0.9-0.9,0.9c-0.5,0-0.9-0.4-0.9-0.9
			C10,111.1,10.4,110.7,10.8,110.7L10.8,110.7z"/>
		<path id="Path_55" class="st1" d="M14.1,97.8c0.5,0,0.9,0.4,0.9,0.9s-0.4,0.9-0.9,0.9c-0.5,0-0.9-0.4-0.9-0.9
			C13.2,98.1,13.6,97.8,14.1,97.8L14.1,97.8z"/>
		<circle id="Ellipse_10" class="st1" cx="13" cy="53.6" r="0.9"/>
		<path id="Path_56" class="st1" d="M28.5,65.3c0.5,0,0.9,0.4,0.9,0.9S29,67,28.5,67c-0.5,0-0.9-0.4-0.9-0.9
			C27.7,65.7,28,65.3,28.5,65.3C28.5,65.3,28.5,65.3,28.5,65.3z"/>
		<path id="Path_57" class="st1" d="M0.9,37.7c0.5,0,0.9,0.4,0.9,0.9s-0.4,0.9-0.9,0.9c-0.5,0-0.9-0.4-0.9-0.9
			C0,38.1,0.4,37.7,0.9,37.7L0.9,37.7z"/>
		<path id="Path_58" class="st1" d="M23.5,20.6c0.5,0,0.9,0.4,0.9,0.9s-0.4,0.9-0.9,0.9c-0.5,0-0.9-0.4-0.9-0.9
			C22.6,21,23,20.6,23.5,20.6L23.5,20.6z"/>
		<path id="Path_59" class="st1" d="M80.9,63.9c0.5,0,0.9,0.4,0.9,0.9c0,0.5-0.4,0.9-0.9,0.9c-0.5,0-0.9-0.4-0.9-0.9c0,0,0,0,0,0
			C80,64.3,80.4,63.9,80.9,63.9z"/>
		<path id="Path_60" class="st1" d="M28,42.1c0.5,0,0.9,0.4,0.9,0.9s-0.4,0.9-0.9,0.9c-0.5,0-0.9-0.4-0.9-0.9c0,0,0,0,0,0
			C27.1,42.5,27.5,42.1,28,42.1z"/>
		<path id="Path_61" class="st1" d="M82.4,76.7c0.5,0,0.9,0.4,0.9,0.9c0,0.5-0.4,0.9-0.9,0.9c-0.5,0-0.9-0.4-0.9-0.9
			C81.5,77.1,81.9,76.7,82.4,76.7L82.4,76.7z"/>
		<path id="Path_62" class="st1" d="M36.4,98.7c0.5,0,0.9,0.4,0.9,0.9s-0.4,0.9-0.9,0.9c-0.5,0-0.9-0.4-0.9-0.9
			C35.5,99.1,35.9,98.7,36.4,98.7L36.4,98.7z"/>
		<path id="Path_63" class="st1" d="M62.9,88.3c0.5,0,0.9,0.4,0.9,0.9c0,0.5-0.4,0.9-0.9,0.9c-0.5,0-0.9-0.4-0.9-0.9
			C62,88.7,62.4,88.3,62.9,88.3L62.9,88.3z"/>
		<circle id="Ellipse_11" class="st1" cx="1.5" cy="72.2" r="0.9"/>
		<path id="Path_64" class="st1" d="M37,85.6c0.5,0,0.9,0.4,0.9,0.9s-0.4,0.9-0.9,0.9c-0.5,0-0.9-0.4-0.9-0.9
			C36.1,86,36.5,85.6,37,85.6L37,85.6z"/>
		<path id="Path_65" class="st1" d="M86,62.2c0.5,0,0.9,0.4,0.9,0.9c0,0.5-0.4,0.9-0.9,0.9c-0.5,0-0.9-0.4-0.9-0.9
			C85.2,62.6,85.5,62.2,86,62.2L86,62.2z"/>
		<circle id="Ellipse_12" class="st1" cx="65.6" cy="51.2" r="0.9"/>
		<path id="Path_66" class="st1" d="M18.8,74.9c0.5,0,0.9,0.4,0.9,0.9s-0.4,0.9-0.9,0.9c-0.5,0-0.9-0.4-0.9-0.9
			C17.9,75.3,18.3,74.9,18.8,74.9L18.8,74.9z"/>
		<path id="Path_67" class="st1" d="M78.2,51.3c0.5,0,0.9,0.4,0.9,0.9c0,0.5-0.4,0.9-0.9,0.9c-0.5,0-0.9-0.4-0.9-0.9
			C77.3,51.7,77.7,51.3,78.2,51.3L78.2,51.3z"/>
		<path id="Path_68" class="st1" d="M12.7,47.1c0.5,0,0.9,0.4,0.9,0.9s-0.4,0.9-0.9,0.9c-0.5,0-0.9-0.4-0.9-0.9
			C11.9,47.5,12.3,47.1,12.7,47.1L12.7,47.1z"/>
		<circle id="Ellipse_13" class="st1" cx="9.6" cy="41.7" r="0.9"/>
		<circle id="Ellipse_14" class="st1" cx="39.6" cy="65.8" r="0.9"/>
		<path id="Path_69" class="st1" d="M94.2,56.4c0.5,0,0.9,0.4,0.9,0.9c0,0.5-0.4,0.9-0.9,0.9c-0.5,0-0.9-0.4-0.9-0.9c0,0,0,0,0,0
			C93.3,56.8,93.7,56.4,94.2,56.4z"/>
		<path id="Path_70" class="st1" d="M90,58.8c0.5,0,0.9,0.4,0.9,0.9c0,0.5-0.4,0.9-0.9,0.9c-0.5,0-0.9-0.4-0.9-0.9c0,0,0,0,0,0
			C89.1,59.2,89.5,58.8,90,58.8C90,58.8,90,58.8,90,58.8z"/>
		<circle id="Ellipse_15" class="st1" cx="55" cy="50" r="0.9"/>
		<path id="Path_71" class="st1" d="M91.4,52.3c0.5,0,0.9,0.4,0.9,0.9c0,0.5-0.4,0.9-0.9,0.9c-0.5,0-0.9-0.4-0.9-0.9
			C90.5,52.7,90.9,52.3,91.4,52.3C91.4,52.3,91.4,52.3,91.4,52.3z"/>
		<path id="Path_72" class="st1" d="M17.4,68.7c0.5,0,0.9,0.4,0.9,0.9s-0.4,0.9-0.9,0.9c-0.5,0-0.9-0.4-0.9-0.9
			C16.5,69.1,16.9,68.7,17.4,68.7L17.4,68.7z"/>
		<path id="Path_73" class="st1" d="M6,36.9c0.5,0,0.9,0.4,0.9,0.9S6.5,38.6,6,38.6c-0.5,0-0.9-0.4-0.9-0.9c0,0,0,0,0,0
			C5.1,37.3,5.5,36.9,6,36.9z"/>
		<circle id="Ellipse_16" class="st1" cx="12.4" cy="72.8" r="0.9"/>
		<path id="Path_74" class="st1" d="M36,103.6c0.5,0,0.9,0.4,0.9,0.9s-0.4,0.9-0.9,0.9c-0.5,0-0.9-0.4-0.9-0.9
			C35.1,104,35.5,103.6,36,103.6z"/>
		<path id="Path_75" class="st1" d="M50.5,47.4c0.5,0,0.9,0.4,0.9,0.9c0,0.5-0.4,0.9-0.9,0.9c-0.5,0-0.9-0.4-0.9-0.9
			C49.6,47.8,50,47.4,50.5,47.4C50.5,47.4,50.5,47.4,50.5,47.4z"/>
		<path id="Path_76" class="st1" d="M97.8,67.5c0.5,0,0.9,0.4,0.9,0.9c0,0.5-0.4,0.9-0.9,0.9c-0.5,0-0.9-0.4-0.9-0.9
			C96.9,67.9,97.3,67.5,97.8,67.5C97.8,67.5,97.8,67.5,97.8,67.5z"/>
		<path id="Path_77" class="st1" d="M1.2,28.8c0.5,0,0.9,0.4,0.9,0.9s-0.4,0.9-0.9,0.9c-0.5,0-0.9-0.4-0.9-0.9
			C0.3,29.2,0.7,28.8,1.2,28.8L1.2,28.8z"/>
		<path id="Path_78" class="st1" d="M8.5,3.8c0.5,0,0.9,0.4,0.9,0.9S9,5.6,8.5,5.6C8,5.6,7.6,5.2,7.6,4.7C7.6,4.2,8,3.8,8.5,3.8
			L8.5,3.8z"/>
		<circle id="Ellipse_17" class="st1" cx="40.4" cy="50.8" r="0.9"/>
		<circle id="Ellipse_18" class="st1" cx="1.5" cy="23.7" r="0.9"/>
		<circle id="Ellipse_19" class="st1" cx="7.4" cy="47.2" r="0.9"/>
		<path id="Path_79" class="st1" d="M57.8,32.7c0.5,0,0.9,0.4,0.9,0.9c0,0.5-0.4,0.9-0.9,0.9c-0.5,0-0.9-0.4-0.9-0.9c0,0,0,0,0,0
			C57,33,57.4,32.7,57.8,32.7z"/>
		<circle id="Ellipse_20" class="st1" cx="33.4" cy="26.1" r="0.9"/>
		<path id="Path_80" class="st1" d="M15.3,42.9c0.5,0,0.9,0.4,0.9,0.9s-0.4,0.9-0.9,0.9c-0.5,0-0.9-0.4-0.9-0.9
			C14.4,43.2,14.8,42.9,15.3,42.9z"/>
		<circle id="Ellipse_21" class="st1" cx="2.8" cy="43.7" r="0.9"/>
		<circle id="Ellipse_22" class="st1" cx="80.4" cy="47.2" r="0.9"/>
		<path id="Path_81" class="st1" d="M47.8,85.2c0.5,0,0.9,0.4,0.9,0.9c0,0.5-0.4,0.9-0.9,0.9c-0.5,0-0.9-0.4-0.9-0.9
			C46.9,85.6,47.3,85.2,47.8,85.2L47.8,85.2z"/>
		<path id="Path_82" class="st1" d="M83.8,52.4c0.5,0,0.9,0.4,0.9,0.9c0,0.5-0.4,0.9-0.9,0.9c-0.5,0-0.9-0.4-0.9-0.9
			C83,52.8,83.4,52.4,83.8,52.4L83.8,52.4z"/>
		<path id="Path_83" class="st1" d="M1,123c0.5,0,0.9,0.4,0.9,0.9s-0.4,0.9-0.9,0.9c-0.5,0-0.9-0.4-0.9-0.9S0.6,123,1,123L1,123z"/>
		<path id="Path_84" class="st1" d="M54.3,83.9c0.5,0,0.9,0.4,0.9,0.9c0,0.5-0.4,0.9-0.9,0.9c-0.5,0-0.9-0.4-0.9-0.9
			C53.4,84.3,53.8,83.9,54.3,83.9L54.3,83.9z"/>
		<circle id="Ellipse_23" class="st1" cx="63.2" cy="63.7" r="0.9"/>
		<path id="Path_85" class="st1" d="M40.8,89.5c0.5,0,0.9,0.4,0.9,0.9s-0.4,0.9-0.9,0.9c-0.5,0-0.9-0.4-0.9-0.9
			C40,89.9,40.4,89.5,40.8,89.5z"/>
		<circle id="Ellipse_24" class="st1" cx="73.2" cy="48.5" r="0.9"/>
		<path id="Path_86" class="st1" d="M48.5,52.5c0.5,0,0.9,0.4,0.9,0.9c0,0.5-0.4,0.9-0.9,0.9c-0.5,0-0.9-0.4-0.9-0.9
			C47.7,52.9,48.1,52.5,48.5,52.5L48.5,52.5z"/>
		<path id="Path_87" class="st1" d="M17.2,109.5c0.5,0,0.9,0.4,0.9,0.9s-0.4,0.9-0.9,0.9c-0.5,0-0.9-0.4-0.9-0.9
			C16.3,109.9,16.7,109.5,17.2,109.5L17.2,109.5z"/>
		<circle id="Ellipse_25" class="st1" cx="2.3" cy="5.5" r="0.9"/>
		<circle id="Ellipse_26" class="st1" cx="86" cy="68.7" r="0.9"/>
		<path id="Path_88" class="st1" d="M91.3,65.5c0.5,0,0.9,0.4,0.9,0.9c0,0.5-0.4,0.9-0.9,0.9c-0.5,0-0.9-0.4-0.9-0.9c0,0,0,0,0,0
			C90.4,65.9,90.8,65.5,91.3,65.5z"/>
		<path id="Path_89" class="st1" d="M18,48.7c0.5,0,0.9,0.4,0.9,0.9s-0.4,0.9-0.9,0.9c-0.5,0-0.9-0.4-0.9-0.9
			C17.2,49.1,17.6,48.7,18,48.7L18,48.7z"/>
		<circle id="Ellipse_27" class="st1" cx="78.4" cy="60.6" r="0.9"/>
		<path id="Path_90" class="st1" d="M30.6,29.7c0.5,0,0.9,0.4,0.9,0.9s-0.4,0.9-0.9,0.9c-0.5,0-0.9-0.4-0.9-0.9
			C29.7,30.1,30.1,29.7,30.6,29.7L30.6,29.7z"/>
		<path id="Path_91" class="st1" d="M20.4,95.9c0.5,0,0.9,0.4,0.9,0.9s-0.4,0.9-0.9,0.9c-0.5,0-0.9-0.4-0.9-0.9c0,0,0,0,0,0
			C19.5,96.3,19.9,95.9,20.4,95.9C20.4,95.9,20.4,95.9,20.4,95.9z"/>
		<circle id="Ellipse_28" class="st1" cx="49.2" cy="43.5" r="0.9"/>
		<path id="Path_92" class="st1" d="M1.5,105.8c0.5,0,0.9,0.4,0.9,0.9s-0.4,0.9-0.9,0.9c-0.5,0-0.9-0.4-0.9-0.9
			C0.6,106.2,1,105.8,1.5,105.8L1.5,105.8z"/>
		<path id="Path_93" class="st1" d="M18.2,55.3c0.5,0,0.9,0.4,0.9,0.9S18.7,57,18.2,57c-0.5,0-0.9-0.4-0.9-0.9
			C17.4,55.7,17.8,55.3,18.2,55.3L18.2,55.3z"/>
		<path id="Path_94" class="st1" d="M8,57.1c0.5,0,0.9,0.4,0.9,0.9S8.4,58.8,8,58.8c-0.5,0-0.9-0.4-0.9-0.9
			C7.1,57.5,7.5,57.1,8,57.1z"/>
		<path id="Path_95" class="st1" d="M53.7,35.2c0.5,0,0.9,0.4,0.9,0.9c0,0.5-0.4,0.9-0.9,0.9c-0.5,0-0.9-0.4-0.9-0.9
			C52.8,35.6,53.2,35.2,53.7,35.2L53.7,35.2z"/>
		<path id="Path_96" class="st1" d="M70,75.1c0.5,0,0.9,0.4,0.9,0.9c0,0.5-0.4,0.9-0.9,0.9c-0.5,0-0.9-0.4-0.9-0.9
			C69.2,75.5,69.6,75.1,70,75.1L70,75.1z"/>
		<path id="Path_97" class="st1" d="M22,100.8c0.5,0,0.9,0.4,0.9,0.9s-0.4,0.9-0.9,0.9c-0.5,0-0.9-0.4-0.9-0.9
			C21.2,101.2,21.5,100.8,22,100.8L22,100.8z"/>
		<path id="Path_98" class="st1" d="M1.1,88.9c0.5,0,0.9,0.4,0.9,0.9s-0.4,0.9-0.9,0.9c-0.5,0-0.9-0.4-0.9-0.9
			C0.2,89.3,0.6,88.9,1.1,88.9L1.1,88.9z"/>
		<circle id="Ellipse_29" class="st1" cx="37" cy="21.6" r="0.9"/>
		<circle id="Ellipse_30" class="st1" cx="41.5" cy="96.1" r="0.9"/>
		<path id="Path_99" class="st1" d="M56.8,54.1c0.5,0,0.9,0.4,0.9,0.9c0,0.5-0.4,0.9-0.9,0.9c-0.5,0-0.9-0.4-0.9-0.9
			C55.9,54.5,56.3,54.1,56.8,54.1L56.8,54.1z"/>
		<path id="Path_100" class="st1" d="M51.8,68.3c0.5,0,0.9,0.4,0.9,0.9c0,0.5-0.4,0.9-0.9,0.9c-0.5,0-0.9-0.4-0.9-0.9
			C51,68.7,51.4,68.3,51.8,68.3L51.8,68.3z"/>
		<path id="Path_101" class="st1" d="M36,92.6c0.5,0,0.9,0.4,0.9,0.9s-0.4,0.9-0.9,0.9c-0.5,0-0.9-0.4-0.9-0.9
			C35.2,92.9,35.6,92.6,36,92.6L36,92.6z"/>
		<path id="Path_102" class="st1" d="M1.5,116.4c0.5,0,0.9,0.4,0.9,0.9c0,0.5-0.4,0.9-0.9,0.9c-0.5,0-0.9-0.4-0.9-0.9
			C0.6,116.8,1,116.4,1.5,116.4z"/>
		<path id="Path_103" class="st1" d="M1.8,76.8c0.5,0,0.9,0.4,0.9,0.9s-0.4,0.9-0.9,0.9c-0.5,0-0.9-0.4-0.9-0.9
			C0.9,77.1,1.3,76.8,1.8,76.8L1.8,76.8z"/>
		<path id="Path_104" class="st1" d="M77,74.6c0.5,0,0.9,0.4,0.9,0.9c0,0.5-0.4,0.9-0.9,0.9c-0.5,0-0.9-0.4-0.9-0.9
			C76.2,75,76.6,74.6,77,74.6C77,74.6,77,74.6,77,74.6z"/>
		<circle id="Ellipse_31" class="st1" cx="37.3" cy="55.9" r="0.9"/>
		<path id="Path_105" class="st1" d="M103.2,59.2c0.5,0,0.9,0.4,0.9,0.9c0,0.5-0.4,0.9-0.9,0.9c-0.5,0-0.9-0.4-0.9-0.9
			C102.3,59.6,102.7,59.2,103.2,59.2L103.2,59.2z"/>
		<circle id="Ellipse_32" class="st1" cx="13.3" cy="77.7" r="0.9"/>
		<path id="Path_106" class="st1" d="M23.7,88.7c0.5,0,0.9,0.4,0.9,0.9s-0.4,0.9-0.9,0.9c-0.5,0-0.9-0.4-0.9-0.9
			C22.9,89,23.3,88.7,23.7,88.7L23.7,88.7z"/>
		<circle id="Ellipse_33" class="st1" cx="50.9" cy="62.4" r="0.9"/>
		<circle id="Ellipse_34" class="st1" cx="27" cy="60" r="0.9"/>
		<path id="Path_107" class="st1" d="M24.1,78.1c0.5,0,0.9,0.4,0.9,0.9s-0.4,0.9-0.9,0.9c-0.5,0-0.9-0.4-0.9-0.9c0,0,0,0,0,0
			C23.3,78.5,23.7,78.1,24.1,78.1z"/>
		<path id="Path_108" class="st1" d="M4.9,62.7c0.5,0,0.9,0.4,0.9,0.9s-0.4,0.9-0.9,0.9c-0.5,0-0.9-0.4-0.9-0.9
			C4.1,63,4.5,62.7,4.9,62.7L4.9,62.7z"/>
		<circle id="Ellipse_35" class="st1" cx="9.7" cy="103.2" r="0.9"/>
		<path id="Path_109" class="st1" d="M8.7,8.7c0.5,0,0.9,0.4,0.9,0.9c0,0.5-0.4,0.9-0.9,0.9s-0.9-0.4-0.9-0.9c0,0,0,0,0,0
			C7.8,9.1,8.2,8.7,8.7,8.7z"/>
		<path id="Path_110" class="st1" d="M1.9,53.3c0.5,0,0.9,0.4,0.9,0.9s-0.4,0.9-0.9,0.9c-0.5,0-0.9-0.4-0.9-0.9
			C1,53.7,1.4,53.3,1.9,53.3C1.9,53.3,1.9,53.3,1.9,53.3z"/>
		<path id="Path_111" class="st1" d="M56.7,64c0.5,0,0.9,0.4,0.9,0.9c0,0.5-0.4,0.9-0.9,0.9c-0.5,0-0.9-0.4-0.9-0.9
			C55.9,64.4,56.2,64,56.7,64L56.7,64z"/>
		<path id="Path_112" class="st1" d="M5.7,85.6c0.5,0,0.9,0.4,0.9,0.9s-0.4,0.9-0.9,0.9c-0.5,0-0.9-0.4-0.9-0.9
			C4.8,86,5.2,85.6,5.7,85.6L5.7,85.6z"/>
		<path id="Path_113" class="st1" d="M17,63.6c0.5,0,0.9,0.4,0.9,0.9s-0.4,0.9-0.9,0.9c-0.5,0-0.9-0.4-0.9-0.9
			C16.1,64,16.5,63.6,17,63.6L17,63.6z"/>
		<path id="Path_114" class="st1" d="M21.7,82.4c0.5,0,0.9,0.4,0.9,0.9s-0.4,0.9-0.9,0.9c-0.5,0-0.9-0.4-0.9-0.9
			C20.8,82.8,21.2,82.4,21.7,82.4C21.7,82.4,21.7,82.4,21.7,82.4z"/>
		<path id="Path_115" class="st1" d="M1.5,47.9c0.5,0,0.9,0.4,0.9,0.9S2,49.6,1.5,49.6c-0.5,0-0.9-0.4-0.9-0.9
			C0.7,48.3,1,47.9,1.5,47.9L1.5,47.9z"/>
		<path id="Path_116" class="st1" d="M1.5,58.2c0.5,0,0.9,0.4,0.9,0.9s-0.4,0.9-0.9,0.9c-0.5,0-0.9-0.4-0.9-0.9c0,0,0,0,0,0
			C0.6,58.6,1,58.2,1.5,58.2z"/>
		<path id="Path_117" class="st1" d="M23.3,66.3c0.5,0,0.9,0.4,0.9,0.9S23.8,68,23.3,68c-0.5,0-0.9-0.4-0.9-0.9
			C22.5,66.7,22.9,66.3,23.3,66.3L23.3,66.3z"/>
		<circle id="Ellipse_36" class="st1" cx="9.5" cy="29.8" r="0.9"/>
		<path id="Path_118" class="st1" d="M34.3,67.4c0.5,0,0.9,0.4,0.9,0.9s-0.4,0.9-0.9,0.9c-0.5,0-0.9-0.4-0.9-0.9
			C33.5,67.8,33.9,67.4,34.3,67.4C34.3,67.4,34.3,67.4,34.3,67.4z"/>
		<path id="Path_119" class="st1" d="M44.3,59.7c0.5,0,0.9,0.4,0.9,0.9c0,0.5-0.4,0.9-0.9,0.9c-0.5,0-0.9-0.4-0.9-0.9
			C43.5,60.1,43.9,59.7,44.3,59.7L44.3,59.7z"/>
		<path id="Path_120" class="st1" d="M6.3,24.8c0.5,0,0.9,0.4,0.9,0.9s-0.4,0.9-0.9,0.9c-0.5,0-0.9-0.4-0.9-0.9
			C5.5,25.1,5.9,24.8,6.3,24.8L6.3,24.8z"/>
		<circle id="Ellipse_37" class="st1" cx="7.2" cy="115.3" r="0.9"/>
		<path id="Path_121" class="st1" d="M56.1,44c0.5,0,0.9,0.4,0.9,0.9c0,0.5-0.4,0.9-0.9,0.9c-0.5,0-0.9-0.4-0.9-0.9
			C55.2,44.4,55.6,44,56.1,44C56.1,44,56.1,44,56.1,44z"/>
		<circle id="Ellipse_38" class="st1" cx="60.4" cy="51.2" r="0.9"/>
		<circle id="Ellipse_39" class="st1" cx="38.2" cy="60.9" r="0.9"/>
		<circle id="Ellipse_40" class="st1" cx="7.5" cy="52.8" r="0.9"/>
		<circle id="Ellipse_41" class="st1" cx="43.6" cy="84" r="0.9"/>
		<circle id="Ellipse_42" class="st1" cx="1" cy="17.8" r="0.9"/>
		<path id="Path_122" class="st1" d="M28.5,36.6c0.5,0,0.9,0.4,0.9,0.9s-0.4,0.9-0.9,0.9c-0.5,0-0.9-0.4-0.9-0.9
			C27.6,37,28,36.6,28.5,36.6L28.5,36.6z"/>
		<path id="Path_123" class="st1" d="M44.3,68.5c0.5,0,0.9,0.4,0.9,0.9c0,0.5-0.4,0.9-0.9,0.9c-0.5,0-0.9-0.4-0.9-0.9
			C43.4,68.8,43.8,68.5,44.3,68.5C44.3,68.5,44.3,68.5,44.3,68.5z"/>
		<path id="Path_124" class="st1" d="M20.8,16.1c0.5,0,0.9,0.4,0.9,0.9s-0.4,0.9-0.9,0.9c-0.5,0-0.9-0.4-0.9-0.9
			C19.9,16.5,20.3,16.1,20.8,16.1L20.8,16.1z"/>
		<path id="Path_125" class="st1" d="M29.5,46.6c0.5,0,0.9,0.4,0.9,0.9s-0.4,0.9-0.9,0.9c-0.5,0-0.9-0.4-0.9-0.9
			C28.6,47,29,46.6,29.5,46.6L29.5,46.6z"/>
		<circle id="Ellipse_43" class="st1" cx="6.5" cy="70.5" r="0.9"/>
		<path id="Path_126" class="st1" d="M57.5,68.7c0.5,0,0.9,0.4,0.9,0.9c0,0.5-0.4,0.9-0.9,0.9c-0.5,0-0.9-0.4-0.9-0.9
			C56.6,69.1,57,68.7,57.5,68.7z"/>
		<circle id="Ellipse_44" class="st1" cx="45.8" cy="91.8" r="0.9"/>
		<path id="Path_127" class="st1" d="M63.2,68.2c0.5,0,0.9,0.4,0.9,0.9c0,0.5-0.4,0.9-0.9,0.9c-0.5,0-0.9-0.4-0.9-0.9
			C62.3,68.5,62.7,68.2,63.2,68.2C63.2,68.2,63.2,68.2,63.2,68.2z"/>
		<path id="Path_128" class="st1" d="M27.6,71.3c0.5,0,0.9,0.4,0.9,0.9S28.1,73,27.6,73c-0.5,0-0.9-0.4-0.9-0.9
			C26.7,71.7,27.1,71.3,27.6,71.3L27.6,71.3z"/>
		<circle id="Ellipse_45" class="st1" cx="1.5" cy="10.4" r="0.9"/>
		<circle id="Ellipse_46" class="st1" cx="1.9" cy="101.7" r="0.9"/>
		<path id="Path_129" class="st1" d="M26.1,94.3c0.5,0,0.9,0.4,0.9,0.9S26.5,96,26.1,96c-0.5,0-0.9-0.4-0.9-0.9
			C25.2,94.7,25.6,94.3,26.1,94.3L26.1,94.3z"/>
		<circle id="Ellipse_47" class="st1" cx="13.7" cy="91.3" r="0.9"/>
		<circle id="Ellipse_48" class="st1" cx="19" cy="40.3" r="0.9"/>
		<path id="Path_130" class="st1" d="M33.5,72.3c0.5,0,0.9,0.4,0.9,0.9S33.9,74,33.5,74c-0.5,0-0.9-0.4-0.9-0.9
			C32.6,72.7,33,72.3,33.5,72.3L33.5,72.3z"/>
		<path id="Path_131" class="st1" d="M62.6,44.6c0.5,0,0.9,0.4,0.9,0.9c0,0.5-0.4,0.9-0.9,0.9c-0.5,0-0.9-0.4-0.9-0.9
			C61.7,44.9,62.1,44.6,62.6,44.6L62.6,44.6z"/>
		<path id="Path_132" class="st1" d="M37.3,76.2c0.5,0,0.9,0.4,0.9,0.9s-0.4,0.9-0.9,0.9c-0.5,0-0.9-0.4-0.9-0.9c0,0,0,0,0,0
			C36.4,76.6,36.8,76.2,37.3,76.2z"/>
		<circle id="Ellipse_49" class="st1" cx="42.5" cy="100.9" r="0.9"/>
		<path id="Path_133" class="st1" d="M76.7,80c0.5,0,0.9,0.4,0.9,0.9c0,0.5-0.4,0.9-0.9,0.9c-0.5,0-0.9-0.4-0.9-0.9c0,0,0,0,0,0
			C75.8,80.4,76.2,80,76.7,80z"/>
		<path id="Path_134" class="st1" d="M65.8,39.1c0.5,0,0.9,0.4,0.9,0.9c0,0.5-0.4,0.9-0.9,0.9c-0.5,0-0.9-0.4-0.9-0.9
			C65,39.5,65.4,39.1,65.8,39.1z"/>
		<path id="Path_135" class="st1" d="M92.7,70.6c0.5,0,0.9,0.4,0.9,0.9c0,0.5-0.4,0.9-0.9,0.9c-0.5,0-0.9-0.4-0.9-0.9c0,0,0,0,0,0
			C91.9,71,92.3,70.6,92.7,70.6z"/>
		<path id="Path_136" class="st1" d="M10.8,34c0.5,0,0.9,0.4,0.9,0.9s-0.4,0.9-0.9,0.9c-0.5,0-0.9-0.4-0.9-0.9
			C10,34.4,10.3,34,10.8,34L10.8,34z"/>
		<path id="Path_137" class="st1" d="M44.3,39.5c0.5,0,0.9,0.4,0.9,0.9c0,0.5-0.4,0.9-0.9,0.9c-0.5,0-0.9-0.4-0.9-0.9
			C43.4,39.9,43.8,39.5,44.3,39.5L44.3,39.5z"/>
		<path id="Path_138" class="st1" d="M71.4,79.9c0.5,0,0.9,0.4,0.9,0.9c0,0.5-0.4,0.9-0.9,0.9c-0.5,0-0.9-0.4-0.9-0.9
			C70.6,80.2,71,79.9,71.4,79.9L71.4,79.9z"/>
		<circle id="Ellipse_50" class="st1" cx="59.4" cy="85.1" r="0.9"/>
		<path id="Path_139" class="st1" d="M23.6,36.8c0.5,0,0.9,0.4,0.9,0.9s-0.4,0.9-0.9,0.9c-0.5,0-0.9-0.4-0.9-0.9c0,0,0,0,0,0
			C22.7,37.2,23.1,36.8,23.6,36.8z"/>
		<path id="Path_140" class="st1" d="M14.4,8.2c0.5,0,0.9,0.4,0.9,0.9c0,0.5-0.4,0.9-0.9,0.9c-0.5,0-0.9-0.4-0.9-0.9c0,0,0,0,0,0
			C13.6,8.6,14,8.2,14.4,8.2z"/>
		<circle id="Ellipse_51" class="st1" cx="1.7" cy="0.9" r="0.9"/>
		<path id="Path_141" class="st1" d="M45.1,47.3c0.5,0,0.9,0.4,0.9,0.9c0,0.5-0.4,0.9-0.9,0.9c-0.5,0-0.9-0.4-0.9-0.9c0,0,0,0,0,0
			C44.2,47.7,44.6,47.3,45.1,47.3z"/>
		<circle id="Ellipse_52" class="st1" cx="47.6" cy="29.1" r="0.9"/>
		<path id="Path_142" class="st1" d="M10.2,62c0.5,0,0.9,0.4,0.9,0.9s-0.4,0.9-0.9,0.9c-0.5,0-0.9-0.4-0.9-0.9
			C9.4,62.4,9.8,62,10.2,62L10.2,62z"/>
		<path id="Path_143" class="st1" d="M53.1,93.5c0.5,0,0.9,0.4,0.9,0.9c0,0.5-0.4,0.9-0.9,0.9c-0.5,0-0.9-0.4-0.9-0.9
			C52.2,93.9,52.6,93.5,53.1,93.5L53.1,93.5z"/>
		<path id="Path_144" class="st1" d="M17.8,22.3c0.5,0,0.9,0.4,0.9,0.9c0,0.5-0.4,0.9-0.9,0.9c-0.5,0-0.9-0.4-0.9-0.9c0,0,0,0,0,0
			C17,22.7,17.3,22.3,17.8,22.3z"/>
		<path id="Path_145" class="st1" d="M38.7,38c0.5,0,0.9,0.4,0.9,0.9s-0.4,0.9-0.9,0.9c-0.5,0-0.9-0.4-0.9-0.9
			C37.9,38.3,38.2,38,38.7,38z"/>
		<circle id="Ellipse_53" class="st1" cx="22.5" cy="72.9" r="0.9"/>
		<path id="Path_146" class="st1" d="M87.8,73.4c0.5,0,0.9,0.4,0.9,0.9c0,0.5-0.4,0.9-0.9,0.9c-0.5,0-0.9-0.4-0.9-0.9
			C86.9,73.8,87.3,73.4,87.8,73.4L87.8,73.4z"/>
		<path id="Path_147" class="st1" d="M37.3,30.7c0.5,0,0.9,0.4,0.9,0.9s-0.4,0.9-0.9,0.9c-0.5,0-0.9-0.4-0.9-0.9c0,0,0,0,0,0
			C36.5,31.1,36.9,30.7,37.3,30.7C37.3,30.7,37.3,30.7,37.3,30.7z"/>
		<path id="Path_148" class="st1" d="M62.4,35.9c0.5,0,0.9,0.4,0.9,0.9c0,0.5-0.4,0.9-0.9,0.9c-0.5,0-0.9-0.4-0.9-0.9
			C61.6,36.3,62,35.9,62.4,35.9L62.4,35.9z"/>
		<circle id="Ellipse_54" class="st1" cx="33.3" cy="35.4" r="0.9"/>
		<circle id="Ellipse_55" class="st1" cx="30.1" cy="91.9" r="0.9"/>
		<circle id="Ellipse_56" class="st1" cx="107.8" cy="63" r="0.9"/>
		<path id="Path_149" class="st1" d="M43.2,54.6c0.5,0,0.9,0.4,0.9,0.9c0,0.5-0.4,0.9-0.9,0.9c-0.5,0-0.9-0.4-0.9-0.9c0,0,0,0,0,0
			C42.4,55,42.7,54.6,43.2,54.6z"/>
		<circle id="Ellipse_57" class="st1" cx="47.4" cy="73.6" r="0.9"/>
		<path id="Path_150" class="st1" d="M11.1,117.8c0.5,0,0.9,0.4,0.9,0.9s-0.4,0.9-0.9,0.9c-0.5,0-0.9-0.4-0.9-0.9
			S10.6,117.8,11.1,117.8L11.1,117.8z"/>
		<circle id="Ellipse_58" class="st1" cx="32" cy="87.5" r="0.9"/>
		<path id="Path_151" class="st1" d="M44,77c0.5,0,0.9,0.4,0.9,0.9c0,0.5-0.4,0.9-0.9,0.9c-0.5,0-0.9-0.4-0.9-0.9
			C43.2,77.4,43.5,77,44,77L44,77z"/>
		<path id="Path_152" class="st1" d="M13.4,106c0.5,0,0.9,0.4,0.9,0.9s-0.4,0.9-0.9,0.9c-0.5,0-0.9-0.4-0.9-0.9c0,0,0,0,0,0
			C12.6,106.4,12.9,106,13.4,106C13.4,106,13.4,106,13.4,106z"/>
		<circle id="Ellipse_59" class="st1" cx="56.8" cy="60.2" r="0.9"/>
		<path id="Path_153" class="st1" d="M46.5,34.4c0.5,0,0.9,0.4,0.9,0.9c0,0.5-0.4,0.9-0.9,0.9c-0.5,0-0.9-0.4-0.9-0.9
			C45.6,34.7,46,34.4,46.5,34.4z"/>
		<circle id="Ellipse_60" class="st1" cx="26.1" cy="26.2" r="0.9"/>
		<circle id="Ellipse_61" class="st1" cx="34.2" cy="50.9" r="0.9"/>
		<path id="Path_154" class="st1" d="M49.3,79.9c0.5,0,0.9,0.4,0.9,0.9c0,0.5-0.4,0.9-0.9,0.9c-0.5,0-0.9-0.4-0.9-0.9
			C48.4,80.3,48.8,79.9,49.3,79.9L49.3,79.9z"/>
		<path id="Path_155" class="st1" d="M51.8,30c0.5,0,0.9,0.4,0.9,0.9c0,0.5-0.4,0.9-0.9,0.9c-0.5,0-0.9-0.4-0.9-0.9
			C51,30.4,51.4,30,51.8,30L51.8,30z"/>
		<path id="Path_156" class="st1" d="M6.7,98.1c0.5,0,0.9,0.4,0.9,0.9s-0.4,0.9-0.9,0.9c-0.5,0-0.9-0.4-0.9-0.9
			C5.8,98.5,6.2,98.1,6.7,98.1z"/>
		<circle id="Ellipse_62" class="st1" cx="17.1" cy="103.1" r="0.9"/>
		<path id="Path_157" class="st1" d="M60.8,78.7c0.5,0,0.9,0.4,0.9,0.9c0,0.5-0.4,0.9-0.9,0.9c-0.5,0-0.9-0.4-0.9-0.9
			C60,79.1,60.3,78.7,60.8,78.7C60.8,78.7,60.8,78.7,60.8,78.7z"/>
		<path id="Path_158" class="st1" d="M32.3,80.7c0.5,0,0.9,0.4,0.9,0.9s-0.4,0.9-0.9,0.9c-0.5,0-0.9-0.4-0.9-0.9
			C31.4,81.1,31.8,80.7,32.3,80.7L32.3,80.7z"/>
		<circle id="Ellipse_63" class="st1" cx="65" cy="83" r="0.9"/>
		<path id="Path_159" class="st1" d="M25.2,30.5c0.5,0,0.9,0.4,0.9,0.9s-0.4,0.9-0.9,0.9c-0.5,0-0.9-0.4-0.9-0.9
			C24.3,30.9,24.7,30.5,25.2,30.5L25.2,30.5z"/>
		<path id="Path_160" class="st1" d="M31.9,56.2c0.5,0,0.9,0.4,0.9,0.9S32.3,58,31.9,58c-0.5,0-0.9-0.4-0.9-0.9
			C31,56.6,31.4,56.2,31.9,56.2L31.9,56.2z"/>
		<path id="Path_161" class="st1" d="M35.7,44.9c0.5,0,0.9,0.4,0.9,0.9s-0.4,0.9-0.9,0.9c-0.5,0-0.9-0.4-0.9-0.9
			C34.8,45.3,35.2,44.9,35.7,44.9C35.7,44.9,35.7,44.9,35.7,44.9z"/>
		<circle id="Ellipse_64" class="st1" cx="55.4" cy="79.2" r="0.9"/>
		<circle id="Ellipse_65" class="st1" cx="6.6" cy="19.5" r="0.9"/>
		<path id="Path_162" class="st1" d="M28.3,52.1c0.5,0,0.9,0.4,0.9,0.9s-0.4,0.9-0.9,0.9c-0.5,0-0.9-0.4-0.9-0.9
			C27.5,52.5,27.9,52.1,28.3,52.1L28.3,52.1z"/>
		<circle id="Ellipse_66" class="st1" cx="22.6" cy="106.9" r="0.9"/>
		<path id="Path_163" class="st1" d="M69.4,84.5c0.5,0,0.9,0.4,0.9,0.9c0,0.5-0.4,0.9-0.9,0.9c-0.5,0-0.9-0.4-0.9-0.9c0,0,0,0,0,0
			C68.6,84.9,68.9,84.5,69.4,84.5C69.4,84.5,69.4,84.5,69.4,84.5z"/>
		<circle id="Ellipse_67" class="st1" cx="6.1" cy="92.2" r="0.9"/>
		<circle id="Ellipse_68" class="st1" cx="23.2" cy="56.1" r="0.9"/>
		<path id="Path_164" class="st1" d="M70.9,40.3c0.5,0,0.9,0.4,0.9,0.9c0,0.5-0.4,0.9-0.9,0.9c-0.5,0-0.9-0.4-0.9-0.9c0,0,0,0,0,0
			C70,40.6,70.4,40.3,70.9,40.3z"/>
		<circle id="Ellipse_69" class="st1" cx="10.9" cy="14.4" r="0.9"/>
		<path id="Path_165" class="st1" d="M15.1,29.2c0.5,0,0.9,0.4,0.9,0.9c0,0.5-0.4,0.9-0.9,0.9c-0.5,0-0.9-0.4-0.9-0.9
			C14.3,29.6,14.7,29.2,15.1,29.2C15.1,29.2,15.1,29.2,15.1,29.2z"/>
		<path id="Path_166" class="st1" d="M31.7,17.3c0.5,0,0.9,0.4,0.9,0.9c0,0.5-0.4,0.9-0.9,0.9s-0.9-0.4-0.9-0.9c0,0,0,0,0,0
			C30.8,17.7,31.2,17.3,31.7,17.3z"/>
		<circle id="Ellipse_70" class="st1" cx="31.1" cy="105.2" r="0.9"/>
		<path id="Path_167" class="st1" d="M20.2,27.1c0.5,0,0.9,0.4,0.9,0.9s-0.4,0.9-0.9,0.9c-0.5,0-0.9-0.4-0.9-0.9
			C19.3,27.5,19.7,27.1,20.2,27.1L20.2,27.1z"/>
		<path id="Path_168" class="st1" d="M40.8,43.6c0.5,0,0.9,0.4,0.9,0.9s-0.4,0.9-0.9,0.9c-0.5,0-0.9-0.4-0.9-0.9
			C39.9,44,40.3,43.6,40.8,43.6L40.8,43.6z"/>
		<path id="Path_169" class="st1" d="M5,13.2c0.5,0,0.9,0.4,0.9,0.9S5.5,15,5,15c-0.5,0-0.9-0.4-0.9-0.9C4.1,13.6,4.5,13.2,5,13.2
			C5,13.2,5,13.2,5,13.2z"/>
		<path id="Path_170" class="st1" d="M15.9,114.7c0.5,0,0.9,0.4,0.9,0.9s-0.4,0.9-0.9,0.9S15,116,15,115.6
			C15,115.1,15.4,114.7,15.9,114.7C15.9,114.7,15.9,114.7,15.9,114.7z"/>
		<circle id="Ellipse_71" class="st1" cx="29.2" cy="21.8" r="0.9"/>
		<circle id="Ellipse_72" class="st1" cx="12.3" cy="24.9" r="0.9"/>
		<path id="Path_171" class="st1" d="M19.1,91.4c0.5,0,0.9,0.4,0.9,0.9s-0.4,0.9-0.9,0.9c-0.5,0-0.9-0.4-0.9-0.9
			C18.2,91.8,18.6,91.4,19.1,91.4L19.1,91.4z"/>
		<path id="Path_172" class="st1" d="M33.8,40.2c0.5,0,0.9,0.4,0.9,0.9s-0.4,0.9-0.9,0.9c-0.5,0-0.9-0.4-0.9-0.9
			C32.9,40.6,33.3,40.2,33.8,40.2L33.8,40.2z"/>
		<path id="Path_173" class="st1" d="M66.3,56.4c0.5,0,0.9,0.4,0.9,0.9c0,0.5-0.4,0.9-0.9,0.9c-0.5,0-0.9-0.4-0.9-0.9
			C65.4,56.8,65.8,56.4,66.3,56.4L66.3,56.4z"/>
		<path id="Path_174" class="st1" d="M58.8,73.4c0.5,0,0.9,0.4,0.9,0.9c0,0.5-0.4,0.9-0.9,0.9c-0.5,0-0.9-0.4-0.9-0.9
			C57.9,73.8,58.3,73.4,58.8,73.4L58.8,73.4z"/>
		<path id="Path_175" class="st1" d="M23.3,49.5c0.5,0,0.9,0.4,0.9,0.9s-0.4,0.9-0.9,0.9c-0.5,0-0.9-0.4-0.9-0.9
			C22.4,49.8,22.8,49.5,23.3,49.5L23.3,49.5z"/>
		<path id="Path_176" class="st1" d="M14.7,36.6c0.5,0,0.9,0.4,0.9,0.9s-0.4,0.9-0.9,0.9c-0.5,0-0.9-0.4-0.9-0.9c0,0,0,0,0,0
			C13.8,37,14.2,36.6,14.7,36.6C14.7,36.6,14.7,36.6,14.7,36.6z"/>
		<path id="Path_177" class="st1" d="M68.1,69c0.5,0,0.9,0.4,0.9,0.9c0,0.5-0.4,0.9-0.9,0.9c-0.5,0-0.9-0.4-0.9-0.9
			C67.2,69.4,67.6,69,68.1,69L68.1,69z"/>
		<circle id="Ellipse_73" class="st1" cx="15.9" cy="16.4" r="0.9"/>
		<circle id="Ellipse_74" class="st1" cx="71.2" cy="59.4" r="0.9"/>
		<path id="Path_178" class="st1" d="M39.6,25.8c0.5,0,0.9,0.4,0.9,0.9c0,0.5-0.4,0.9-0.9,0.9c-0.5,0-0.9-0.4-0.9-0.9c0,0,0,0,0,0
			C38.7,26.2,39.1,25.8,39.6,25.8C39.6,25.8,39.6,25.8,39.6,25.8z"/>
		<path id="Path_179" class="st1" d="M11.1,66.6c0.5,0,0.9,0.4,0.9,0.9s-0.4,0.9-0.9,0.9c-0.5,0-0.9-0.4-0.9-0.9c0,0,0,0,0,0
			C10.2,67,10.6,66.6,11.1,66.6z"/>
		<path id="Path_180" class="st1" d="M1.5,81.9c0.5,0,0.9,0.4,0.9,0.9S2,83.6,1.5,83.6c-0.5,0-0.9-0.4-0.9-0.9
			C0.6,82.3,1,81.9,1.5,81.9L1.5,81.9z"/>
		<circle id="Ellipse_75" class="st1" cx="19.6" cy="11.4" r="0.9"/>
		<circle id="Ellipse_76" class="st1" cx="1.2" cy="66.3" r="0.9"/>
		<path id="Path_181" class="st1" d="M22.2,111.6c0.5,0,0.9,0.4,0.9,0.9s-0.4,0.9-0.9,0.9c-0.5,0-0.9-0.4-0.9-0.9c0,0,0,0,0,0
			C21.3,112,21.7,111.6,22.2,111.6z"/>
		<circle id="Ellipse_77" class="st1" cx="4.1" cy="33.1" r="0.9"/>
		<circle id="Ellipse_78" class="st1" cx="6.4" cy="108" r="0.9"/>
		<path id="Path_182" class="st1" d="M51.4,88.5c0.5,0,0.9,0.4,0.9,0.9c0,0.5-0.4,0.9-0.9,0.9c-0.5,0-0.9-0.4-0.9-0.9
			C50.5,88.9,50.9,88.5,51.4,88.5L51.4,88.5z"/>
		<circle id="Ellipse_79" class="st1" cx="64.8" cy="75.5" r="0.9"/>
		<path id="Path_183" class="st1" d="M27.1,84.3c0.5,0,0.9,0.4,0.9,0.9S27.6,86,27.1,86c-0.5,0-0.9-0.4-0.9-0.9
			C26.2,84.7,26.6,84.3,27.1,84.3L27.1,84.3z"/>
		<circle id="Ellipse_80" class="st1" cx="44" cy="25.5" r="0.9"/>
		<circle id="Ellipse_81" class="st1" cx="1.4" cy="96.3" r="0.9"/>
		<circle id="Ellipse_82" class="st1" cx="31.3" cy="97.9" r="0.9"/>
		<circle id="Ellipse_83" class="st1" cx="68.9" cy="64.3" r="0.9"/>
		<circle id="Ellipse_84" class="st1" cx="84.2" cy="57.8" r="0.9"/>
		<path id="Path_184" class="st1" d="M19.6,32.8c0.5,0,0.9,0.4,0.9,0.9s-0.4,0.9-0.9,0.9c-0.5,0-0.9-0.4-0.9-0.9c0,0,0,0,0,0
			C18.7,33.2,19.1,32.8,19.6,32.8C19.6,32.8,19.6,32.8,19.6,32.8z"/>
		<circle id="Ellipse_85" class="st1" cx="41.9" cy="33.4" r="0.9"/>
		<path id="Path_185" class="st1" d="M17.5,85.7c0.5,0,0.9,0.4,0.9,0.9s-0.4,0.9-0.9,0.9c-0.5,0-0.9-0.4-0.9-0.9
			C16.7,86.1,17.1,85.7,17.5,85.7L17.5,85.7z"/>
		<path id="Path_186" class="st1" d="M27,100.6c0.5,0,0.9,0.4,0.9,0.9s-0.4,0.9-0.9,0.9c-0.5,0-0.9-0.4-0.9-0.9c0,0,0,0,0,0
			C26.2,101,26.6,100.6,27,100.6z"/>
		<path id="Path_187" class="st1" d="M74.2,64.3c0.5,0,0.9,0.4,0.9,0.9c0,0.5-0.4,0.9-0.9,0.9c-0.5,0-0.9-0.4-0.9-0.9
			C73.3,64.7,73.7,64.3,74.2,64.3L74.2,64.3z"/>
		<path id="Path_188" class="st1" d="M47.9,96.2c0.5,0,0.9,0.4,0.9,0.9c0,0.5-0.4,0.9-0.9,0.9c-0.5,0-0.9-0.4-0.9-0.9
			C47.1,96.5,47.5,96.2,47.9,96.2L47.9,96.2z"/>
		<path id="Path_189" class="st1" d="M72.9,70.7c0.5,0,0.9,0.4,0.9,0.9c0,0.5-0.4,0.9-0.9,0.9c-0.5,0-0.9-0.4-0.9-0.9
			C72.1,71.1,72.5,70.7,72.9,70.7z"/>
		<path id="Path_190" class="st1" d="M98.7,56.6c0.5,0,0.9,0.4,0.9,0.9c0,0.5-0.4,0.9-0.9,0.9c-0.5,0-0.9-0.4-0.9-0.9
			C97.8,57,98.2,56.6,98.7,56.6z"/>
		<circle id="Ellipse_86" class="st1" cx="12.1" cy="20.2" r="0.9"/>
	</g>
	<g id="Group_9" transform="translate(483.278 42.379)">
		<path id="Path_192" class="st3" d="M77.7,46.4c-0.1,0-0.2,0-0.3-0.1L0.3,1.3C0,1.1-0.1,0.7,0.1,0.3C0.3,0,0.7-0.1,1,0.1l77.1,45
			c0.3,0.2,0.4,0.6,0.2,0.9C78.2,46.2,78,46.4,77.7,46.4L77.7,46.4z"/>
	</g>
	<g id="Group_10" transform="translate(330.927 357.331)">
		<path id="Path_193" class="st3" d="M0.7,57.3C0.3,57.3,0,57,0,56.6c0-0.2,0.1-0.5,0.3-0.6L96.8,0.1c0.3-0.2,0.7-0.1,0.9,0.2
			c0.2,0.3,0.1,0.7-0.2,0.9L1,57.2C0.9,57.2,0.8,57.3,0.7,57.3z"/>
	</g>
	<g id="Group_11" transform="translate(91.893 822.199)">
		<path id="Path_194" class="st3" d="M0.7,49.1c-0.4,0-0.7-0.3-0.7-0.7c0-0.2,0.1-0.5,0.3-0.6L83.5,0.1c0.3-0.2,0.7,0,0.9,0.3
			c0.2,0.3,0.1,0.7-0.2,0.9L1,49C0.9,49.1,0.8,49.1,0.7,49.1z"/>
	</g>
	<g id="Group_12" transform="translate(902.701 305.078)">
		<path id="Path_195" class="st3" d="M0.7,74.1c-0.4,0-0.7-0.3-0.7-0.7c0-0.2,0.1-0.5,0.3-0.6L122.6,0.1c0.3-0.2,0.7-0.1,0.9,0.2
			c0.2,0.3,0.1,0.7-0.2,0.9l0,0L1,74C0.9,74.1,0.8,74.1,0.7,74.1z"/>
	</g>
</g>
</svg>
