<svg xmlns="http://www.w3.org/2000/svg" width="31.238" height="25.388" viewBox="0 0 31.238 25.388"><path d="M31.178,6.393A13.02,13.02,0,0,1,27.5,7.4a6.449,6.449,0,0,0,2.815-3.545A13.218,13.218,0,0,1,26.245,5.4,6.4,6.4,0,0,0,15.167,9.769a6.556,6.556,0,0,0,.166,1.463A18.141,18.141,0,0,1,2.135,4.56a6.279,6.279,0,0,0-.867,3.222,6.405,6.405,0,0,0,2.848,5.331,6.382,6.382,0,0,1-2.9-.8v.079a6.407,6.407,0,0,0,5.136,6.282,6.455,6.455,0,0,1-2.879.111,6.424,6.424,0,0,0,5.992,4.447A12.845,12.845,0,0,1,1.523,25.97,13.587,13.587,0,0,1,0,25.883a18.217,18.217,0,0,0,9.835,2.876c11.784,0,18.22-9.756,18.22-18.2,0-.272,0-.547-.019-.82a12.918,12.918,0,0,0,3.2-3.316l-.062-.026Z" transform="translate(0 -3.37)"/></svg>